<?xml version="1.0" encoding="utf-8"?>
<!-- Generator: Adobe Illustrator 15.1.0, SVG Export Plug-In . SVG Version: 6.00 Build 0)  -->
<!DOCTYPE svg PUBLIC "-//W3C//DTD SVG 1.1//EN" "http://www.w3.org/Graphics/SVG/1.1/DTD/svg11.dtd">
<svg version="1.1" id="Layer_1" xmlns="http://www.w3.org/2000/svg" xmlns:xlink="http://www.w3.org/1999/xlink" x="0px" y="0px"
	 width="30px" height="30px" viewBox="0 0 30 30" enable-background="new 0 0 30 30" xml:space="preserve">
<path fill="#415A77" d="M30,25c0,2.762-2.238,5-5,5H5c-2.761,0-5-2.238-5-5V5c0-2.761,2.239-5,5-5h20c2.762,0,5,2.239,5,5V25z"/>
<g>
	<g>
		<path fill="#F2F2F2" d="M13.063,3.502c0.491,0,0.934,0.079,1.328,0.238s0.732,0.376,1.014,0.653
			c0.281,0.276,0.496,0.596,0.644,0.959c0.148,0.364,0.223,0.755,0.223,1.175c0,0.645-0.136,1.203-0.407,1.674
			c-0.271,0.471-0.713,0.829-1.328,1.075v0.031c0.297,0.082,0.542,0.208,0.737,0.376s0.354,0.369,0.477,0.599
			c0.122,0.23,0.212,0.484,0.268,0.76c0.056,0.276,0.095,0.553,0.115,0.829c0.01,0.174,0.021,0.379,0.03,0.614
			c0.01,0.236,0.028,0.476,0.054,0.722s0.066,0.479,0.123,0.699c0.056,0.22,0.141,0.407,0.253,0.561h-2.41
			c-0.133-0.348-0.215-0.763-0.246-1.244c-0.031-0.481-0.077-0.942-0.138-1.382c-0.082-0.573-0.256-0.993-0.522-1.259
			c-0.267-0.266-0.701-0.399-1.305-0.399H9.562v4.284H7.151V3.502H13.063z M12.203,8.462c0.553,0,0.967-0.123,1.244-0.369
			s0.415-0.645,0.415-1.198c0-0.532-0.138-0.919-0.415-1.159c-0.276-0.241-0.691-0.361-1.244-0.361H9.562v3.087H12.203z"/>
	</g>
	<g>
		<path fill="#F2F2F2" d="M19.317,14.398c0.522,0,0.998,0.046,1.429,0.138c0.43,0.092,0.798,0.243,1.105,0.453
			c0.307,0.209,0.545,0.489,0.714,0.836c0.169,0.348,0.253,0.778,0.253,1.29c0,0.553-0.125,1.014-0.376,1.383
			s-0.622,0.67-1.113,0.906c0.676,0.193,1.18,0.535,1.513,1.021s0.499,1.072,0.499,1.758c0,0.553-0.107,1.031-0.322,1.436
			s-0.505,0.734-0.868,0.99s-0.777,0.445-1.243,0.568s-0.944,0.184-1.436,0.184h-5.314V14.398H19.317z M19.011,18.836
			c0.43,0,0.783-0.102,1.06-0.307s0.414-0.539,0.414-0.998c0-0.256-0.046-0.467-0.138-0.631s-0.215-0.291-0.369-0.383
			c-0.153-0.094-0.33-0.156-0.529-0.193c-0.199-0.035-0.407-0.053-0.622-0.053h-2.257v2.564H19.011z M19.148,23.488
			c0.235,0,0.461-0.023,0.676-0.068c0.215-0.047,0.404-0.123,0.568-0.23s0.294-0.254,0.392-0.438
			c0.098-0.186,0.146-0.42,0.146-0.707c0-0.563-0.158-0.965-0.476-1.205s-0.737-0.361-1.259-0.361h-2.626v3.01H19.148z"/>
	</g>
</g>
</svg>
