<?xml version="1.0" standalone="no"?>
<!DOCTYPE svg PUBLIC "-//W3C//DTD SVG 20010904//EN"
 "http://www.w3.org/TR/2001/REC-SVG-20010904/DTD/svg10.dtd">
<svg version="1.0" xmlns="http://www.w3.org/2000/svg"
 width="500.000000pt" height="500.000000pt" viewBox="0 0 500.000000 500.000000"
 preserveAspectRatio="xMidYMid meet">
<metadata>
Created by potrace 1.11, written by Peter Selinger 2001-2013
</metadata>
<g transform="translate(0.000000,500.000000) scale(0.100000,-0.100000)"
fill="#000000" stroke="none">
<path d="M695 4989 c-27 -4 -79 -18 -115 -30 -294 -97 -495 -324 -568 -639
-11 -48 -12 -3572 -1 -3630 66 -348 343 -622 686 -679 36 -6 727 -9 1833 -8
l1775 2 79 23 c261 76 466 262 559 507 60 157 57 48 54 1995 l-2 1785 -23 70
c-106 331 -354 552 -677 604 -74 12 -3528 12 -3600 0z"/>
</g>
</svg>
